<svg width="100" height="100" viewBox="0 0 100 100" fill="none" xmlns="http://www.w3.org/2000/svg">
<mask id="mask0_63_32" style="mask-type:alpha" maskUnits="userSpaceOnUse" x="0" y="0" width="100" height="100">
<path d="M37.3611 9.78085C31.7167 13.601 30.2 19.6497 30.4778 22.8685C30.8333 26.805 31.7111 31.9289 31.7111 31.9289C31.7111 31.9289 29.9722 32.7879 29.9722 36.2443C30.5778 44.9205 33.7667 41.1761 34.4222 44.9812C36 54.1476 39.6056 52.5154 39.6056 57.5181C39.6056 65.8507 35.8278 69.7467 24.0333 74.3653C12.2 79.0041 0 84.8405 0 94.9468V100H100V94.9468C100 84.8405 87.7944 79.0041 75.9556 74.3704C64.1611 69.7518 60.3944 65.8608 60.3944 57.5231C60.3944 52.5205 63.9889 54.1527 65.5722 44.9862C66.2333 41.1812 69.4167 44.9256 70.0333 36.2493C70.0333 32.7929 68.2889 31.9339 68.2889 31.9339C68.2889 31.9339 69.1667 26.81 69.5167 22.8736C69.8778 18.7452 67.3056 9.93244 56.7389 7.229C54.8889 5.51093 53.6389 2.77717 59.3278 0.0332997C46.8833 -0.497282 43.9889 5.42502 37.3611 9.78085V9.78085Z" fill="black"/>
</mask>
<g mask="url(#mask0_63_32)">
<rect x="-1" y="-4" width="100" height="100" rx="50" fill="#AFAFAF"/>
</g>
</svg>
